<mxfile host="app.diagrams.net" modified="2022-09-06T15:11:43.551Z" agent="5.0 (Windows NT 10.0; Win64; x64) AppleWebKit/537.36 (KHTML, like Gecko) Chrome/103.0.5060.134 Safari/537.36 Edg/103.0.1264.71" etag="W6Rw2E0SrgXqAMteyApQ" version="20.2.7" type="github" pages="2">
  <diagram id="xiFxgRklbck53UozxTyR" name="总架构">
    <mxGraphModel dx="1422" dy="754" grid="1" gridSize="10" guides="1" tooltips="1" connect="1" arrows="1" fold="1" page="1" pageScale="1" pageWidth="827" pageHeight="1169" math="0" shadow="0">
      <root>
        <mxCell id="0" />
        <mxCell id="1" parent="0" />
        <mxCell id="QbWRjQl9VW5-r7bOeyV1-14" value="" style="whiteSpace=wrap;html=1;" parent="1" vertex="1">
          <mxGeometry x="290" y="220" width="510" height="500" as="geometry" />
        </mxCell>
        <mxCell id="QbWRjQl9VW5-r7bOeyV1-1" value="阿尔法模型" style="whiteSpace=wrap;html=1;" parent="1" vertex="1">
          <mxGeometry x="310" y="260" width="120" height="60" as="geometry" />
        </mxCell>
        <mxCell id="QbWRjQl9VW5-r7bOeyV1-2" value="风险模型" style="whiteSpace=wrap;html=1;" parent="1" vertex="1">
          <mxGeometry x="480" y="260" width="120" height="60" as="geometry" />
        </mxCell>
        <mxCell id="QbWRjQl9VW5-r7bOeyV1-3" value="交易成本模型" style="whiteSpace=wrap;html=1;" parent="1" vertex="1">
          <mxGeometry x="650" y="260" width="120" height="60" as="geometry" />
        </mxCell>
        <mxCell id="QbWRjQl9VW5-r7bOeyV1-4" value="投资组合构建模型" style="whiteSpace=wrap;html=1;" parent="1" vertex="1">
          <mxGeometry x="480" y="440" width="120" height="60" as="geometry" />
        </mxCell>
        <mxCell id="QbWRjQl9VW5-r7bOeyV1-5" value="执行模型" style="whiteSpace=wrap;html=1;" parent="1" vertex="1">
          <mxGeometry x="480" y="624.5" width="120" height="60" as="geometry" />
        </mxCell>
        <mxCell id="QbWRjQl9VW5-r7bOeyV1-9" value="" style="shape=flexArrow;endArrow=classic;startArrow=classic;html=1;rounded=0;exitX=0.5;exitY=0;exitDx=0;exitDy=0;entryX=0.5;entryY=1;entryDx=0;entryDy=0;" parent="1" source="QbWRjQl9VW5-r7bOeyV1-5" target="QbWRjQl9VW5-r7bOeyV1-4" edge="1">
          <mxGeometry width="100" height="100" relative="1" as="geometry">
            <mxPoint x="470" y="500" as="sourcePoint" />
            <mxPoint x="570" y="400" as="targetPoint" />
          </mxGeometry>
        </mxCell>
        <mxCell id="QbWRjQl9VW5-r7bOeyV1-10" value="" style="shape=flexArrow;endArrow=classic;html=1;rounded=0;exitX=0.5;exitY=1;exitDx=0;exitDy=0;entryX=0;entryY=0;entryDx=0;entryDy=0;" parent="1" source="QbWRjQl9VW5-r7bOeyV1-1" target="QbWRjQl9VW5-r7bOeyV1-4" edge="1">
          <mxGeometry width="50" height="50" relative="1" as="geometry">
            <mxPoint x="490" y="480" as="sourcePoint" />
            <mxPoint x="540" y="430" as="targetPoint" />
          </mxGeometry>
        </mxCell>
        <mxCell id="QbWRjQl9VW5-r7bOeyV1-11" value="" style="shape=flexArrow;endArrow=classic;html=1;rounded=0;exitX=0.5;exitY=1;exitDx=0;exitDy=0;entryX=0.5;entryY=0;entryDx=0;entryDy=0;" parent="1" source="QbWRjQl9VW5-r7bOeyV1-2" target="QbWRjQl9VW5-r7bOeyV1-4" edge="1">
          <mxGeometry width="50" height="50" relative="1" as="geometry">
            <mxPoint x="514" y="340" as="sourcePoint" />
            <mxPoint x="624" y="460" as="targetPoint" />
          </mxGeometry>
        </mxCell>
        <mxCell id="QbWRjQl9VW5-r7bOeyV1-12" value="" style="shape=flexArrow;endArrow=classic;html=1;rounded=0;exitX=0.5;exitY=1;exitDx=0;exitDy=0;entryX=1;entryY=0;entryDx=0;entryDy=0;" parent="1" source="QbWRjQl9VW5-r7bOeyV1-3" target="QbWRjQl9VW5-r7bOeyV1-4" edge="1">
          <mxGeometry width="50" height="50" relative="1" as="geometry">
            <mxPoint x="680" y="330" as="sourcePoint" />
            <mxPoint x="680" y="450" as="targetPoint" />
          </mxGeometry>
        </mxCell>
        <mxCell id="QbWRjQl9VW5-r7bOeyV1-13" value="数据" style="whiteSpace=wrap;html=1;" parent="1" vertex="1">
          <mxGeometry x="80" y="340" width="120" height="60" as="geometry" />
        </mxCell>
        <mxCell id="QbWRjQl9VW5-r7bOeyV1-15" value="研究" style="text;html=1;align=center;verticalAlign=middle;resizable=0;points=[];autosize=1;strokeColor=none;fillColor=none;" parent="1" vertex="1">
          <mxGeometry x="335" y="535" width="50" height="30" as="geometry" />
        </mxCell>
        <mxCell id="QbWRjQl9VW5-r7bOeyV1-16" value="" style="shape=flexArrow;endArrow=classic;html=1;rounded=0;exitX=1;exitY=0.5;exitDx=0;exitDy=0;entryX=-0.002;entryY=0.3;entryDx=0;entryDy=0;entryPerimeter=0;" parent="1" source="QbWRjQl9VW5-r7bOeyV1-13" target="QbWRjQl9VW5-r7bOeyV1-14" edge="1">
          <mxGeometry width="50" height="50" relative="1" as="geometry">
            <mxPoint x="240" y="320" as="sourcePoint" />
            <mxPoint x="290" y="270" as="targetPoint" />
          </mxGeometry>
        </mxCell>
      </root>
    </mxGraphModel>
  </diagram>
  <diagram id="xPcoFk5C6-ein13XLb6Q" name="阿尔法模型">
    <mxGraphModel dx="1422" dy="754" grid="1" gridSize="10" guides="1" tooltips="1" connect="1" arrows="1" fold="1" page="1" pageScale="1" pageWidth="827" pageHeight="1169" math="0" shadow="0">
      <root>
        <mxCell id="0" />
        <mxCell id="1" parent="0" />
        <mxCell id="6bX_Xd81X7coM3W-ZrzQ-1" value="" style="whiteSpace=wrap;html=1;" vertex="1" parent="1">
          <mxGeometry x="60" y="190" width="990" height="370" as="geometry" />
        </mxCell>
        <mxCell id="6bX_Xd81X7coM3W-ZrzQ-2" value="Quant 做什么" style="whiteSpace=wrap;html=1;" vertex="1" parent="1">
          <mxGeometry x="60" y="190" width="100" height="370" as="geometry" />
        </mxCell>
        <mxCell id="6bX_Xd81X7coM3W-ZrzQ-3" value="收益类别" style="whiteSpace=wrap;html=1;" vertex="1" parent="1">
          <mxGeometry x="160" y="190" width="160" height="120" as="geometry" />
        </mxCell>
        <mxCell id="6bX_Xd81X7coM3W-ZrzQ-4" value="输入" style="whiteSpace=wrap;html=1;" vertex="1" parent="1">
          <mxGeometry x="160" y="310" width="160" height="130" as="geometry" />
        </mxCell>
        <mxCell id="6bX_Xd81X7coM3W-ZrzQ-5" value="现象" style="whiteSpace=wrap;html=1;" vertex="1" parent="1">
          <mxGeometry x="160" y="440" width="160" height="120" as="geometry" />
        </mxCell>
        <mxCell id="6bX_Xd81X7coM3W-ZrzQ-6" value="" style="whiteSpace=wrap;html=1;" vertex="1" parent="1">
          <mxGeometry x="320" y="190" width="730" height="120" as="geometry" />
        </mxCell>
        <mxCell id="6bX_Xd81X7coM3W-ZrzQ-7" value="" style="whiteSpace=wrap;html=1;" vertex="1" parent="1">
          <mxGeometry x="320" y="310" width="730" height="130" as="geometry" />
        </mxCell>
        <mxCell id="6bX_Xd81X7coM3W-ZrzQ-8" value="" style="whiteSpace=wrap;html=1;" vertex="1" parent="1">
          <mxGeometry x="320" y="440" width="730" height="120" as="geometry" />
        </mxCell>
        <mxCell id="6bX_Xd81X7coM3W-ZrzQ-18" style="edgeStyle=orthogonalEdgeStyle;rounded=0;orthogonalLoop=1;jettySize=auto;html=1;" edge="1" parent="1" source="6bX_Xd81X7coM3W-ZrzQ-9" target="6bX_Xd81X7coM3W-ZrzQ-10">
          <mxGeometry relative="1" as="geometry" />
        </mxCell>
        <mxCell id="6bX_Xd81X7coM3W-ZrzQ-19" style="edgeStyle=orthogonalEdgeStyle;rounded=0;orthogonalLoop=1;jettySize=auto;html=1;" edge="1" parent="1" source="6bX_Xd81X7coM3W-ZrzQ-9" target="6bX_Xd81X7coM3W-ZrzQ-11">
          <mxGeometry relative="1" as="geometry" />
        </mxCell>
        <mxCell id="6bX_Xd81X7coM3W-ZrzQ-9" value="阿尔法" style="whiteSpace=wrap;html=1;" vertex="1" parent="1">
          <mxGeometry x="610" y="220" width="120" height="60" as="geometry" />
        </mxCell>
        <mxCell id="6bX_Xd81X7coM3W-ZrzQ-20" style="edgeStyle=orthogonalEdgeStyle;rounded=0;orthogonalLoop=1;jettySize=auto;html=1;exitX=0;exitY=0.5;exitDx=0;exitDy=0;" edge="1" parent="1" source="6bX_Xd81X7coM3W-ZrzQ-10" target="6bX_Xd81X7coM3W-ZrzQ-12">
          <mxGeometry relative="1" as="geometry">
            <Array as="points">
              <mxPoint x="370" y="375" />
            </Array>
          </mxGeometry>
        </mxCell>
        <mxCell id="6bX_Xd81X7coM3W-ZrzQ-21" style="edgeStyle=orthogonalEdgeStyle;rounded=0;orthogonalLoop=1;jettySize=auto;html=1;" edge="1" parent="1" source="6bX_Xd81X7coM3W-ZrzQ-10" target="6bX_Xd81X7coM3W-ZrzQ-13">
          <mxGeometry relative="1" as="geometry" />
        </mxCell>
        <mxCell id="6bX_Xd81X7coM3W-ZrzQ-22" style="edgeStyle=orthogonalEdgeStyle;rounded=0;orthogonalLoop=1;jettySize=auto;html=1;" edge="1" parent="1" source="6bX_Xd81X7coM3W-ZrzQ-10" target="6bX_Xd81X7coM3W-ZrzQ-14">
          <mxGeometry relative="1" as="geometry" />
        </mxCell>
        <mxCell id="6bX_Xd81X7coM3W-ZrzQ-10" value="价格" style="whiteSpace=wrap;html=1;" vertex="1" parent="1">
          <mxGeometry x="410" y="345" width="120" height="60" as="geometry" />
        </mxCell>
        <mxCell id="6bX_Xd81X7coM3W-ZrzQ-23" style="edgeStyle=orthogonalEdgeStyle;rounded=0;orthogonalLoop=1;jettySize=auto;html=1;" edge="1" parent="1" source="6bX_Xd81X7coM3W-ZrzQ-11" target="6bX_Xd81X7coM3W-ZrzQ-15">
          <mxGeometry relative="1" as="geometry" />
        </mxCell>
        <mxCell id="6bX_Xd81X7coM3W-ZrzQ-24" style="edgeStyle=orthogonalEdgeStyle;rounded=0;orthogonalLoop=1;jettySize=auto;html=1;entryX=0.5;entryY=0;entryDx=0;entryDy=0;exitX=1;exitY=0.5;exitDx=0;exitDy=0;" edge="1" parent="1" source="6bX_Xd81X7coM3W-ZrzQ-11" target="6bX_Xd81X7coM3W-ZrzQ-17">
          <mxGeometry relative="1" as="geometry" />
        </mxCell>
        <mxCell id="6bX_Xd81X7coM3W-ZrzQ-25" style="edgeStyle=orthogonalEdgeStyle;rounded=0;orthogonalLoop=1;jettySize=auto;html=1;" edge="1" parent="1" source="6bX_Xd81X7coM3W-ZrzQ-11" target="6bX_Xd81X7coM3W-ZrzQ-16">
          <mxGeometry relative="1" as="geometry" />
        </mxCell>
        <mxCell id="6bX_Xd81X7coM3W-ZrzQ-11" value="基本面" style="whiteSpace=wrap;html=1;" vertex="1" parent="1">
          <mxGeometry x="810" y="345" width="120" height="60" as="geometry" />
        </mxCell>
        <mxCell id="6bX_Xd81X7coM3W-ZrzQ-12" value="趋势型" style="whiteSpace=wrap;html=1;" vertex="1" parent="1">
          <mxGeometry x="330" y="470" width="80" height="60" as="geometry" />
        </mxCell>
        <mxCell id="6bX_Xd81X7coM3W-ZrzQ-13" value="回复型" style="whiteSpace=wrap;html=1;" vertex="1" parent="1">
          <mxGeometry x="430" y="470" width="90" height="60" as="geometry" />
        </mxCell>
        <mxCell id="6bX_Xd81X7coM3W-ZrzQ-14" value="技术情绪型" style="whiteSpace=wrap;html=1;" vertex="1" parent="1">
          <mxGeometry x="540" y="470" width="100" height="60" as="geometry" />
        </mxCell>
        <mxCell id="6bX_Xd81X7coM3W-ZrzQ-15" value="价值/收益型" style="whiteSpace=wrap;html=1;" vertex="1" parent="1">
          <mxGeometry x="660" y="470" width="120" height="60" as="geometry" />
        </mxCell>
        <mxCell id="6bX_Xd81X7coM3W-ZrzQ-16" value="成长型" style="whiteSpace=wrap;html=1;" vertex="1" parent="1">
          <mxGeometry x="800" y="470" width="100" height="60" as="geometry" />
        </mxCell>
        <mxCell id="6bX_Xd81X7coM3W-ZrzQ-17" value="品质型" style="whiteSpace=wrap;html=1;" vertex="1" parent="1">
          <mxGeometry x="920" y="470" width="120" height="60" as="geometry" />
        </mxCell>
      </root>
    </mxGraphModel>
  </diagram>
</mxfile>
